<svg fill="none" height="24" viewBox="0 0 24 24" width="24" xmlns="http://www.w3.org/2000/svg" xmlns:xlink="http://www.w3.org/1999/xlink"><clipPath id="a"><path d="m2 2h20v20h-20z"/></clipPath><g clip-path="url(#a)"><path clip-rule="evenodd" d="m12 21.1667c5.0626 0 9.1666-4.1041 9.1666-9.1667s-4.104-9.16666-9.1666-9.16666c-5.06262 0-9.16667 4.10404-9.16669 9.16666 0 5.0626 4.10409 9.1667 9.16669 9.1667zm-1.3835-16.90242c-3.46982.61639-6.15217 3.51014-6.44677 7.08092h3.9473c.23433-2.53507 1.09532-4.96779 2.49947-7.08092zm2.7671.00001c1.4041 2.11313 2.2651 4.54585 2.4994 7.08091h3.9472c-.2946-3.57076-2.9769-6.4645-6.4466-7.08091zm1.1838 7.08091c-.2475-2.44642-1.1333-4.78449-2.5674-6.77984-1.4341 1.99535-2.3199 4.33342-2.56734 6.77984zm-5.13474 1.3095h5.13474c-.2475 2.4465-1.1333 4.7846-2.5674 6.78-1.4341-1.9954-2.31991-4.3335-2.56734-6.78zm-1.31564 0h-3.94729c.29457 3.5709 2.97693 6.4646 6.44677 7.081-1.40416-2.1131-2.26515-4.5458-2.49948-7.081zm5.26658 7.081c1.4041-2.1131 2.2651-4.5459 2.4994-7.081h3.9472c-.2945 3.5708-2.9769 6.4646-6.4466 7.081z" fill="#9ca3af" fill-rule="evenodd"/></g></svg>