<svg width="120" height="42" viewBox="0 0 120 42" fill="none" xmlns="http://www.w3.org/2000/svg">
<path d="M108.358 17.1663C109.801 17.1663 110.972 16.0193 110.972 14.6045C110.972 13.1897 109.801 12.0428 108.358 12.0428C106.914 12.0428 105.744 13.1897 105.744 14.6045C105.744 16.0193 106.914 17.1663 108.358 17.1663Z" fill="#FF4500"/>
<path d="M71.0218 25.528C72.3041 25.528 73.0439 24.5855 72.9946 23.6672C72.97 23.1838 72.9206 22.8697 72.8713 22.628C72.0822 19.2929 69.3202 16.8279 66.0404 16.8279C62.1441 16.8279 58.9875 20.2838 58.9875 24.5372C58.9875 28.7906 62.1441 32.2465 66.0404 32.2465C68.4818 32.2465 70.2327 31.3765 71.4903 29.999C72.1068 29.3223 71.9835 28.2831 71.2437 27.7756C70.6272 27.3648 69.8628 27.5098 69.2956 27.9689C68.753 28.4281 67.7173 29.3465 66.0404 29.3465C64.0676 29.3465 62.3907 27.6789 62.0208 25.4797H71.0218V25.528ZM66.0157 19.7521C67.7913 19.7521 69.3202 21.1055 69.8874 22.9663H62.1441C62.7113 21.0813 64.2402 19.7521 66.0157 19.7521Z" fill="#222222"/>
<path d="M59.1355 18.3504C59.1355 17.6254 58.5929 17.0454 57.9024 16.9246C55.757 16.6104 53.7349 17.3838 52.5758 18.8096V18.6163C52.5758 17.7221 51.836 17.1662 51.0962 17.1662C50.2824 17.1662 49.6166 17.8188 49.6166 18.6163V30.4582C49.6166 31.2315 50.2084 31.9082 50.9976 31.9565C51.8607 32.0049 52.5758 31.3524 52.5758 30.5065V24.3922C52.5758 21.6855 54.6473 19.4621 57.5079 19.7763C57.6065 19.7763 57.7052 19.7763 57.8038 19.7763C58.5436 19.728 59.1355 19.0996 59.1355 18.3504Z" fill="#222222"/>
<path d="M109.837 19.8971C109.837 19.0996 109.171 18.4471 108.358 18.4471C107.544 18.4471 106.878 19.0996 106.878 19.8971C106.878 19.9454 106.878 30.0473 106.878 30.5065C106.878 31.304 107.544 31.9565 108.358 31.9565C109.171 31.9565 109.837 31.304 109.837 30.5065C109.837 30.0715 109.837 19.9696 109.837 19.8971Z" fill="#222222"/>
<path d="M87.8402 11.8736C87.8402 11.0761 87.1744 10.4236 86.3606 10.4236C85.5468 10.4236 84.881 11.0761 84.881 11.8736V18.3263C83.8699 17.3354 82.6122 16.8521 81.1079 16.8521C77.2116 16.8521 74.0551 20.308 74.0551 24.5614C74.0551 28.8148 77.2116 32.2707 81.1079 32.2707C82.6122 32.2707 83.8945 31.7632 84.9056 30.7723C85.0289 31.449 85.6454 31.9565 86.3606 31.9565C87.1744 31.9565 87.8402 31.304 87.8402 30.5065V11.8736ZM81.1326 29.3948C78.8638 29.3948 77.039 27.2439 77.039 24.5614C77.039 21.903 78.8638 19.728 81.1326 19.728C83.4013 19.728 85.2262 21.8788 85.2262 24.5614C85.2262 27.2439 83.3767 29.3948 81.1326 29.3948Z" fill="#222222"/>
<path d="M103.278 11.8736C103.278 11.0761 102.612 10.4236 101.798 10.4236C100.984 10.4236 100.318 11.0761 100.318 11.8736V18.3263C99.3072 17.3354 98.0495 16.8521 96.5452 16.8521C92.6489 16.8521 89.4924 20.308 89.4924 24.5614C89.4924 28.8148 92.6489 32.2707 96.5452 32.2707C98.0495 32.2707 99.3318 31.7632 100.343 30.7723C100.466 31.449 101.083 31.9565 101.798 31.9565C102.612 31.9565 103.278 31.304 103.278 30.5065V11.8736ZM96.5452 29.3948C94.2765 29.3948 92.4516 27.2439 92.4516 24.5614C92.4516 21.903 94.2765 19.728 96.5452 19.728C98.814 19.728 100.639 21.8788 100.639 24.5614C100.639 27.2439 98.814 29.3948 96.5452 29.3948Z" fill="#222222"/>
<path d="M117.334 30.5306V19.7521H118.641C119.331 19.7521 119.948 19.2446 119.997 18.5437C120.047 17.7946 119.43 17.1662 118.69 17.1662H117.334V15.1362C117.334 14.3628 116.742 13.6861 115.953 13.6378C115.09 13.5895 114.375 14.242 114.375 15.0878V17.1904H113.142C112.451 17.1904 111.835 17.6979 111.785 18.3987C111.736 19.1479 112.353 19.7763 113.092 19.7763H114.35V30.5548C114.35 31.3523 115.016 32.0048 115.83 32.0048C116.693 31.9565 117.334 31.3282 117.334 30.5306Z" fill="#222222"/>
<path d="M20.6654 41.1642C32.0785 41.1642 41.3307 32.097 41.3307 20.9121C41.3307 9.72722 32.0785 0.660065 20.6654 0.660065C9.2522 0.660065 0 9.72722 0 20.9121C0 32.097 9.2522 41.1642 20.6654 41.1642Z" fill="#FF4500"/>
<path d="M34.4505 20.9121C34.4505 19.2687 33.0942 17.9637 31.4419 17.9637C30.6282 17.9637 29.8883 18.2779 29.3458 18.7854C27.2743 17.3354 24.4384 16.3929 21.2819 16.272L22.6629 9.94023L27.151 10.8827C27.2004 11.9944 28.1375 12.8886 29.2965 12.8886C30.4802 12.8886 31.4419 11.9461 31.4419 10.7861C31.4419 9.62605 30.4802 8.68353 29.2965 8.68353C28.458 8.68353 27.7182 9.16688 27.373 9.86772L22.3669 8.82854C22.219 8.80437 22.071 8.82854 21.9724 8.90104C21.8491 8.97354 21.7751 9.09437 21.7504 9.23938L20.2215 16.2962C17.0156 16.3928 14.1304 17.3354 12.0343 18.8096C11.4917 18.3021 10.7519 17.9879 9.93813 17.9879C8.26122 17.9879 6.92957 19.3171 6.92957 20.9363C6.92957 22.1446 7.66938 23.1596 8.70511 23.6188C8.65579 23.9088 8.63113 24.1988 8.63113 24.513C8.63113 29.0564 14.0317 32.754 20.69 32.754C27.3483 32.754 32.7489 29.0806 32.7489 24.513C32.7489 24.223 32.7243 23.9088 32.675 23.6188C33.7107 23.1596 34.4505 22.1205 34.4505 20.9121ZM13.7851 23.0146C13.7851 21.8546 14.7469 20.9121 15.9306 20.9121C17.1143 20.9121 18.076 21.8546 18.076 23.0146C18.076 24.1747 17.1143 25.1172 15.9306 25.1172C14.7469 25.1414 13.7851 24.1747 13.7851 23.0146ZM25.7947 28.5973C24.3151 30.0473 21.5038 30.144 20.69 30.144C19.8516 30.144 17.0403 30.0231 15.5853 28.5973C15.3634 28.3798 15.3634 28.0414 15.5853 27.8239C15.8073 27.6064 16.1525 27.6064 16.3745 27.8239C17.3116 28.7423 19.2844 29.0564 20.69 29.0564C22.0957 29.0564 24.0932 28.7423 25.0056 27.8239C25.2275 27.6064 25.5728 27.6064 25.7947 27.8239C25.992 28.0414 25.992 28.3798 25.7947 28.5973ZM25.4002 25.1414C24.2165 25.1414 23.2547 24.1988 23.2547 23.0388C23.2547 21.8788 24.2165 20.9363 25.4002 20.9363C26.5839 20.9363 27.5456 21.8788 27.5456 23.0388C27.5456 24.1747 26.5839 25.1414 25.4002 25.1414Z" fill="white"/>
</svg>
